<?xml version="1.0" encoding="UTF-8" standalone="no"?>
<!-- Created with Inkscape (http://www.inkscape.org/) -->

<svg
   xmlns:dc="http://purl.org/dc/elements/1.1/"
   xmlns:cc="http://creativecommons.org/ns#"
   xmlns:rdf="http://www.w3.org/1999/02/22-rdf-syntax-ns#"
   xmlns:svg="http://www.w3.org/2000/svg"
   xmlns="http://www.w3.org/2000/svg"
   xmlns:sodipodi="http://sodipodi.sourceforge.net/DTD/sodipodi-0.dtd"
   xmlns:inkscape="http://www.inkscape.org/namespaces/inkscape"
   id="svg3336"
   version="1.1"
   inkscape:version="0.91 r13725"
   width="545"
   height="545"
   viewBox="0 0 545 545"
   sodipodi:docname="github-logo.svg">
  <metadata
     id="metadata3342">
    <rdf:RDF>
      <cc:Work
         rdf:about="">
        <dc:format>image/svg+xml</dc:format>
        <dc:type
           rdf:resource="http://purl.org/dc/dcmitype/StillImage" />
        <dc:title></dc:title>
      </cc:Work>
    </rdf:RDF>
  </metadata>
  <defs
     id="defs3340" />
  <sodipodi:namedview
     pagecolor="#ffffff"
     bordercolor="#666666"
     borderopacity="1"
     objecttolerance="10"
     gridtolerance="10"
     guidetolerance="10"
     inkscape:pageopacity="0"
     inkscape:pageshadow="2"
     inkscape:window-width="1920"
     inkscape:window-height="1017"
     id="namedview3338"
     showgrid="false"
     inkscape:zoom="1.1325515"
     inkscape:cx="403.98442"
     inkscape:cy="236.85057"
     inkscape:window-x="-8"
     inkscape:window-y="-8"
     inkscape:window-maximized="1"
     inkscape:current-layer="svg3336"
     fit-margin-top="0"
     fit-margin-left="0"
     fit-margin-right="0"
     fit-margin-bottom="0" />
  <path
     style="fill:#212121;fill-opacity:1"
     d="m 187.16398,538.06269 c -0.38816,-0.14133 -3.0876,-0.96439 -5.99877,-1.82904 -14.90035,-4.42558 -41.04558,-17.57931 -61.0984,-30.73877 C 100.77371,492.834 90.357026,484.32542 76.27215,469.72241 14.16521,405.33081 -11.967388,315.62286 5.4761059,226.69395 19.522469,155.08399 64.294238,89.92754 126.48155,50.594475 160.54272,29.050998 196.78704,16.000785 238.34281,10.31746 c 10.12356,-1.3845298 14.60546,-1.5881428 34.56806,-1.5703978 19.75703,0.01756 24.52944,0.238844 34.42861,1.5963848 19.19167,2.631884 33.88624,5.99295 51.31829,11.738005 C 459.31158,55.253713 531.665,144.61883 543.52644,250.4164 c 7.33048,65.38379 -9.99961,133.6886 -47.27115,186.31433 -12.39741,17.5046 -35.95824,42.09726 -53.1332,55.46013 -2.45212,1.90786 -5.94551,4.66864 -7.76309,6.13508 -12.5614,10.13458 -45.79504,28.41531 -65.76232,36.17364 -11.85231,4.60525 -21.88042,4.80008 -25.86331,0.50247 -3.90462,-4.21316 -3.98852,-5.21546 -4.50437,-53.80996 -0.49893,-46.99937 -0.66146,-49.45686 -3.91189,-59.14573 -2.80476,-8.36037 -5.11274,-12.16264 -10.89926,-17.95593 l -5.46307,-5.46945 3.56177,0 c 1.95897,0 5.65205,-0.32353 8.20685,-0.71893 21.58447,-3.34069 22.26706,-3.49101 36.63595,-8.06761 11.24796,-3.58255 21.87158,-8.45708 28.34955,-13.00789 23.56414,-16.5539 36.43074,-33.78021 43.28658,-57.95376 2.72697,-9.61526 3.24728,-12.04287 5.5209,-25.75936 1.1485,-6.92874 1.52754,-12.28417 1.54844,-21.87782 0.0319,-14.68527 -0.81513,-22.22358 -3.86008,-34.35099 -3.07739,-12.25659 -10.52241,-26.71722 -18.8406,-36.59455 l -5.91762,-7.02681 2.14419,-6.18094 c 6.40805,-18.47208 5.89097,-33.16112 -2.09986,-59.6525 -1.95421,-6.47864 -2.69516,-7.11578 -7.60789,-6.54187 -5.21789,0.60956 -17.6777,3.57693 -21.03155,5.00876 -1.46846,0.62693 -5.81895,2.2464 -9.66772,3.59883 -12.12253,4.25974 -27.1865,12.54426 -33.79965,18.5883 l -3.89895,3.56343 -9.59855,-3.20686 c -16.93821,-5.65899 -35.96965,-8.11674 -62.86154,-8.11799 -26.9142,-0.001 -42.04343,2.21318 -58.55001,8.56982 -3.42855,1.32033 -5.95157,1.92984 -6.46283,1.56131 -13.26996,-9.5655 -22.38269,-14.52075 -37.66739,-20.4825 -16.48397,-6.42952 -22.73938,-8.21537 -29.03337,-8.28869 -6.34394,-0.0739 -7.32154,0.54053 -10.0591,6.32237 -3.73898,7.89683 -6.05781,21.10389 -6.06883,34.56523 -0.006,6.87666 1.74805,16.1108 5.20522,27.40848 l 1.04997,3.43114 -5.29031,6.39172 c -6.66818,8.05648 -13.74251,19.99221 -16.54675,27.91754 -10.882517,30.75614 -9.89124,68.00372 2.6408,99.22824 5.75498,14.33897 12.06074,24.06556 22.362,34.49324 15.97621,16.1723 30.17861,23.79497 58.1741,31.22302 9.3783,2.48835 28.07308,5.95764 32.10361,5.95764 2.01527,0 1.99434,0.0436 -2.28884,4.76371 -7.1393,7.86766 -10.89235,15.88178 -12.82562,27.38735 l -0.9039,5.37941 -3.26689,1.65546 c -11.62323,5.88995 -35.20076,7.02317 -47.84386,2.29955 -4.2801,-1.5991 -11.85124,-6.5246 -15.88684,-10.3354 -3.18779,-3.01022 -9.33378,-10.9724 -14.23906,-18.44683 -4.4568,-6.79108 -12.20494,-14.55181 -18.87604,-18.90676 -6.868043,-4.48349 -17.214047,-7.59328 -22.999921,-6.91327 -7.282612,0.85593 -11.883201,4.03854 -10.194454,7.05236 0.314785,0.56179 3.430571,3.17271 6.923965,5.80205 8.232475,6.19627 20.28973,18.33683 24.4414,24.61026 1.79812,2.71708 5.68585,9.81654 8.63942,15.77656 6.20295,12.51699 8.65132,16.09004 15.03152,21.93633 5.80543,5.31963 16.27497,10.63595 25.98993,13.19743 5.89415,1.55406 9.03481,1.9137 19.05487,2.18197 11.04031,0.29558 12.70132,0.17052 20.81921,-1.5677 4.85193,-1.03891 9.70841,-2.05901 10.79217,-2.26689 l 1.9705,-0.37796 -0.20615,29.22831 c -0.23138,32.80515 0.019,31.24175 -5.59858,34.95928 -2.21467,1.4656 -3.89735,1.95463 -7.21665,2.09734 -2.38072,0.10235 -4.64616,0.0705 -5.03431,-0.0709 z m -15.55827,-84.00935 c -0.95275,-0.95275 -1.73227,-2.3963 -1.73227,-3.20789 0,-4.59584 8.2666,-6.86142 11.24055,-3.08064 1.98288,2.52082 1.84531,4.79444 -0.39681,6.55809 -2.65497,2.0884 -6.87847,1.96344 -9.11147,-0.26956 z m -21.54715,-2.44787 c -2.60086,-2.60084 -2.67335,-5.11756 -0.20341,-7.06042 2.5768,-2.02691 4.93422,-1.8349 7.36934,0.60023 2.42462,2.42461 2.66914,5.09394 0.65145,7.11164 -2.09277,2.09276 -5.34412,1.82181 -7.81738,-0.65145 z m 42.55547,0.25857 c -1.66208,-1.16416 -2.05003,-3.74034 -0.88974,-5.90834 1.65955,-3.10094 9.06936,-3.64047 10.60443,-0.77217 1.25559,2.34609 0.81535,4.77425 -1.14521,6.31643 -2.22573,1.75077 -6.34015,1.92556 -8.56948,0.36408 z m -61.23526,-11.21969 c -2.09816,-2.09816 -2.22821,-4.82915 -0.32079,-6.73657 2.39933,-2.39934 5.78363,-1.734 7.43633,1.46195 1.3851,2.6785 1.30135,3.91509 -0.37898,5.59541 -1.90741,1.90742 -4.63841,1.77737 -6.73656,-0.32079 z m -12.70324,-15.5262 c -3.16301,-3.16299 -1.51647,-8.14804 2.69125,-8.14804 1.99977,0 4.75104,3.18756 4.75104,5.50444 0,4.16263 -4.37073,5.71519 -7.44229,2.6436 z m -9.8803,-14.11472 c -2.10022,-2.1002 -2.20887,-4.14276 -0.3208,-6.03083 1.9696,-1.96959 4.54261,-1.78662 6.3004,0.44804 1.7479,2.2221 1.83789,3.64239 0.36407,5.74656 -1.45313,2.07464 -4.17556,2.00435 -6.34367,-0.16377 z M 96.917255,399.42337 c -1.50829,-1.66664 -1.287604,-4.93782 0.404586,-5.99713 3.019199,-1.89001 7.651289,2.74208 5.761289,5.76128 -1.10771,1.76956 -4.655096,1.90525 -6.165875,0.23585 z"
     id="path3346"
     inkscape:connector-curvature="0" />
</svg>
