<?xml version="1.0" encoding="UTF-8" standalone="no"?>
<!-- Created with Inkscape (http://www.inkscape.org/) -->

<svg
   xmlns:dc="http://purl.org/dc/elements/1.1/"
   xmlns:cc="http://creativecommons.org/ns#"
   xmlns:rdf="http://www.w3.org/1999/02/22-rdf-syntax-ns#"
   xmlns:svg="http://www.w3.org/2000/svg"
   xmlns="http://www.w3.org/2000/svg"
   xmlns:sodipodi="http://sodipodi.sourceforge.net/DTD/sodipodi-0.dtd"
   xmlns:inkscape="http://www.inkscape.org/namespaces/inkscape"
   id="svg3336"
   version="1.1"
   inkscape:version="0.91 r13725"
   width="545"
   height="545"
   viewBox="0 0 545 545"
   sodipodi:docname="linkedin-logo.svg">
  <metadata
     id="metadata3342">
    <rdf:RDF>
      <cc:Work
         rdf:about="">
        <dc:format>image/svg+xml</dc:format>
        <dc:type
           rdf:resource="http://purl.org/dc/dcmitype/StillImage" />
        <dc:title></dc:title>
      </cc:Work>
    </rdf:RDF>
  </metadata>
  <defs
     id="defs3340" />
  <sodipodi:namedview
     pagecolor="#ffffff"
     bordercolor="#666666"
     borderopacity="1"
     objecttolerance="10"
     gridtolerance="10"
     guidetolerance="10"
     inkscape:pageopacity="0"
     inkscape:pageshadow="2"
     inkscape:window-width="1920"
     inkscape:window-height="1017"
     id="namedview3338"
     showgrid="false"
     inkscape:zoom="1.5559633"
     inkscape:cx="272.5"
     inkscape:cy="272.5"
     inkscape:window-x="-8"
     inkscape:window-y="-8"
     inkscape:window-maximized="1"
     inkscape:current-layer="svg3336"
     fit-margin-top="0"
     fit-margin-left="0"
     fit-margin-right="0"
     fit-margin-bottom="0" />
  <path
     style="fill:#212121;fill-opacity:1"
     d="M 33.095167,544.2944 C 15.417505,540.82411 2.8727098,527.73781 0.61831944,510.41563 0.07006729,506.20302 -0.09436584,436.27918 0.04934905,268.47369 L 0.25148784,32.45674 1.8307911,27.870464 C 3.953694,21.705583 6.7385076,17.076167 11.380686,11.994888 16.323499,6.5845322 21.352372,3.58782 28.839814,1.5909384 L 34.805089,0 273.85957,0 l 239.0545,0 5.17218,1.8904009 c 7.20302,2.6326649 12.31464,5.8857898 16.74654,10.6577631 4.26448,4.591704 8.39285,12.505976 9.45969,18.134631 0.46379,2.446948 0.70687,84.722235 0.70649,239.121955 -6.1e-4,250.36998 0.15393,237.91195 -3.08424,248.63432 -3.61482,11.96954 -18.88317,23.8754 -33.16779,25.86335 -6.72097,0.93534 -470.886156,0.92751 -475.651773,-0.008 z m 128.994093,-209.84887 0,-129.47416 -40.195,0 -40.195003,0 0,129.47416 0,129.47417 40.195003,0 40.195,0 0,-129.47417 z m 131.87522,56.27011 0.007,-73.20406 1.72149,-8.46698 c 3.31867,-16.32267 12.25501,-29.95885 23.48705,-35.83943 8.86273,-4.64012 13.48212,-5.59681 25.70886,-5.32432 10.69247,0.2383 10.80915,0.25844 16.07614,2.77536 10.22523,4.88627 16.73427,12.91621 20.54595,25.34666 l 1.61915,5.28034 0.21449,81.31824 0.21447,81.31825 40.18298,0 40.18298,0 -0.21807,-89.78522 c -0.23829,-98.12139 -0.17445,-96.48453 -4.46324,-114.43651 -2.10174,-8.79745 -8.18727,-22.87005 -13.32903,-30.82298 -6.06513,-9.38111 -15.17945,-17.51869 -25.37903,-22.65926 -5.50352,-2.77376 -19.63845,-6.92295 -28.5596,-8.38341 -5.5757,-0.91279 -11.63486,-1.32361 -19.39233,-1.31483 -29.27887,0.0331 -47.19908,6.59216 -65.45162,23.95623 -6.81942,6.48747 -9.96421,10.70823 -14.47231,19.42392 l -2.91963,5.64465 -0.007,-20.28546 -0.007,-20.28546 -38.07948,0 -38.07948,0 0,129.47416 0,129.47417 40.195,0 40.19501,0 0.007,-73.20406 z M 133.84649,169.00882 c 8.49214,-2.20648 13.75352,-5.2814 20.55554,-12.01327 7.2247,-7.15022 11.28246,-13.68327 14.11638,-22.7276 3.59754,-11.4814 2.62361,-22.47277 -3.04501,-34.364815 -5.33549,-11.193154 -17.19841,-20.969257 -30.82616,-25.403494 -9.57627,-3.115957 -26.03003,-1.231226 -36.817319,4.217312 -8.784463,4.436936 -17.834579,15.216612 -21.880333,26.061877 -2.007568,5.38156 -2.269579,6.98113 -2.551539,15.57683 -0.300524,9.16142 -0.224684,9.83874 1.738054,15.52279 3.99275,11.56291 11.846557,22.10838 20.046229,26.91647 11.735368,6.88134 26.785898,9.30018 38.664158,6.2139 z"
     id="path5278"
     inkscape:connector-curvature="0" />
</svg>
